<?xml version="1.0" ?><!-- Uploaded to: SVG Repo, www.svgrepo.com, Generator: SVG Repo Mixer Tools -->
<svg width="800px" height="800px" viewBox="0 0 64 64" data-name="Lovely Valentine's day" id="Lovely_Valentine_s_day" xmlns="http://www.w3.org/2000/svg"><defs><style>.cls-1{fill:#e29e9a;}.cls-2{fill:#d26274;}.cls-3{fill:#623905;}.cls-4{fill:#268484;}.cls-5{fill:#2c9ea5;}.cls-6{fill:#f6e3a6;}</style></defs><title/><circle class="cls-1" cx="32" cy="32" r="28"/><rect class="cls-2" height="36" rx="2" width="21" x="12" y="16"/><path class="cls-3" d="M31,53H14a3,3,0,0,1-3-3V18a3,3,0,0,1,3-3H31a3,3,0,0,1,3,3V50A3,3,0,0,1,31,53ZM14,17a1,1,0,0,0-1,1V50a1,1,0,0,0,1,1H31a1,1,0,0,0,1-1V18a1,1,0,0,0-1-1Z"/><rect class="cls-4" height="36" rx="2" width="20" x="32" y="16"/><path class="cls-3" d="M50,53H34a3,3,0,0,1-3-3V18a3,3,0,0,1,3-3H50a3,3,0,0,1,3,3V50A3,3,0,0,1,50,53ZM34,17a1,1,0,0,0-1,1V50a1,1,0,0,0,1,1H50a1,1,0,0,0,1-1V18a1,1,0,0,0-1-1Z"/><rect class="cls-1" height="23" rx="2" width="12" x="16" y="20"/><rect class="cls-5" height="23" rx="2" width="12" x="36" y="20"/><circle class="cls-6" cx="22" cy="47" r="2"/><path class="cls-3" d="M22,50a3,3,0,1,1,3-3A3,3,0,0,1,22,50Zm0-4a1,1,0,1,0,1,1A1,1,0,0,0,22,46Z"/><circle class="cls-6" cx="42" cy="47" r="2"/><path class="cls-3" d="M42,50a3,3,0,1,1,3-3A3,3,0,0,1,42,50Zm0-4a1,1,0,1,0,1,1A1,1,0,0,0,42,46Z"/><path class="cls-6" d="M38.847,15.782a3.249,3.249,0,0,1-.965,2.326l-2.327,2.326L32.708,23.29a1,1,0,0,1-1.416,0l-2.847-2.856-2.326-2.326a3.29,3.29,0,0,1,4.652-4.653L32,14.684l1.229-1.229a3.294,3.294,0,0,1,4.653,0A3.249,3.249,0,0,1,38.847,15.782Z"/><path class="cls-3" d="M32,24.583A1.983,1.983,0,0,1,30.584,24l-5.172-5.18a4.29,4.29,0,1,1,6.067-6.066L32,13.27l.522-.522a4.29,4.29,0,1,1,6.061,6.073L33.416,24A1.986,1.986,0,0,1,32,24.583ZM28.445,13.492A2.284,2.284,0,0,0,26.823,17.4L32,22.583,37.175,17.4a2.286,2.286,0,0,0,.006-3.232,2.34,2.34,0,0,0-3.244-.006l-1.23,1.229a1,1,0,0,1-1.414,0l-1.229-1.228A2.271,2.271,0,0,0,28.445,13.492Z"/></svg>